<svg height="200" viewBox="0 0 52.92 52.92" width="200" xmlns="http://www.w3.org/2000/svg">
<g fill="#858585" fill-opacity=".24">
<path d="m34.31 8.61c-1.43.03-2.81.79-3.58 2.11l-.22.38c-1.3-.33-2.65-.52-4.05-.52-8.75 0-15.88 7.12-15.88 15.88 0 8.75 7.12 15.88 15.88 15.88 8.75 0 15.88-7.12 15.88-15.88 0-4.3-1.73-8.21-4.52-11.08l.25-.42c1.16-2.02.46-4.62-1.56-5.78-.69-.4-1.45-.58-2.2-.57zm.15 1.84c.38.01.77.12 1.13.33 1.16.67 1.54 2.1.87 3.25l-2.65 4.58c-.67 1.16-2.1 1.54-3.25.87-1.16-.67-1.54-2.1-.87-3.25.88-1.53 1.76-3.05 2.65-4.58.46-.79 1.28-1.22 2.12-1.2zm-8 2.78c.92 0 1.81.09 2.67.27l-1.05 1.81c-1.16 2.02-.47 4.62 1.55 5.78s4.62.47 5.78-1.55l1.02-1.77c2.02 2.32 3.25 5.36 3.25 8.69 0 7.32-5.91 13.23-13.23 13.23s-13.23-5.91-13.23-13.23 5.91-13.23 13.23-13.23z" fill-rule="evenodd"/>
<rect height="4.23" ry="1.06" width="2.12" x="25.4"/>
<rect height="4.23" ry="1.06" transform="matrix(.97 .26 -.26 .97 0 0)" width="2.12" x="31.35" y="-7.75"/>
<rect height="4.23" ry="1.06" transform="matrix(.87 .5 -.5 .87 0 0)" width="2.12" x="35.08" y="-16.77"/>
<rect height="4.23" ry="1.06" transform="matrix(.71 .71 -.71 .71 0 0)" width="2.12" x="36.36" y="-26.46"/>
<rect height="4.23" ry="1.06" transform="matrix(.5 .87 -.87 .5 0 0)" width="2.12" x="35.08" y="-36.14"/>
<rect height="4.23" ry="1.06" transform="matrix(.26 .97 -.97 .26 0 0)" width="2.12" x="31.35" y="-45.17"/>
<rect height="4.23" ry="1.06" transform="matrix(.26 .97 -.97 .26 0 0)" width="2.12" x="31.35" y="3.52"/>
<rect height="4.23" ry="1.06" transform="rotate(90)" width="2.12" x="25.4" y="-52.92"/>
<rect height="4.23" ry="1.06" transform="rotate(90)" width="2.12" x="25.4" y="-4.23"/>
<rect height="4.23" ry="1.06" transform="matrix(-.26 .97 -.97 -.26 0 0)" width="2.12" x="17.65" y="-58.86"/>
<rect height="4.23" ry="1.06" transform="matrix(-.26 .97 -.97 -.26 0 0)" width="2.12" x="17.65" y="-10.18"/>
<rect height="4.23" ry="1.06" transform="matrix(-.5 .87 -.87 -.5 0 0)" width="2.12" x="8.63" y="-13.92"/>
<rect height="4.23" ry="1.06" transform="matrix(-.71 .71 -.71 -.71 0 0)" width="2.12" x="-1.06" y="-15.19"/>
<rect height="4.23" ry="1.06" transform="matrix(-.87 .5 -.5 -.87 0 0)" width="2.12" x="-10.74" y="-13.92"/>
<rect height="4.23" ry="1.06" transform="matrix(-.97 .26 -.26 -.97 0 0)" width="2.12" x="-19.77" y="-10.18"/>
</g>
</svg>
