<svg height="200" viewBox="0 0 52.92 52.92" width="200" xmlns="http://www.w3.org/2000/svg">
<g fill="#858585" fill-opacity=".24">
<rect height="4.23" ry="1.06" width="2.12" x="25.4"/>
<rect height="4.25" ry="1.06" transform="matrix(.97 .26 -.26 .97 0 0)" width="2.13" x="31.48" y="-7.78"/>
<rect height="4.24" ry="1.06" transform="matrix(.87 .5 -.5 .87 0 0)" width="2.13" x="35.2" y="-16.83"/>
<rect height="4.25" ry="1.06" transform="matrix(.71 .71 -.71 .71 0 0)" width="2.13" x="36.51" y="-26.57"/>
<rect height="4.24" ry="1.06" transform="matrix(.5 .87 -.87 .5 0 0)" width="2.13" x="35.2" y="-36.26"/>
<rect height="4.25" ry="1.06" transform="matrix(.26 .97 -.97 .26 0 0)" width="2.13" x="31.48" y="-45.36"/>
<rect height="4.25" ry="1.06" transform="matrix(.26 .97 -.97 .26 0 0)" width="2.13" x="31.48" y="3.53"/>
<rect height="4.23" ry="1.06" transform="rotate(90)" width="2.12" x="25.4" y="-52.92"/>
<rect height="4.23" ry="1.06" transform="rotate(90)" width="2.12" x="25.4" y="-4.23"/>
<rect height="4.25" ry="1.06" transform="matrix(-.26 .97 -.97 -.26 0 0)" width="2.13" x="17.72" y="-59.11"/>
<rect height="4.25" ry="1.06" transform="matrix(-.26 .97 -.97 -.26 0 0)" width="2.13" x="17.72" y="-10.22"/>
<rect height="4.24" ry="1.06" transform="matrix(-.5 .87 -.87 -.5 0 0)" width="2.13" x="8.66" y="-13.97"/>
<rect height="4.25" ry="1.06" transform="matrix(-.71 .71 -.71 -.71 0 0)" width="2.13" x="-1.06" y="-15.25"/>
<rect height="4.24" ry="1.06" transform="matrix(-.87 .5 -.5 -.87 0 0)" width="2.13" x="-10.78" y="-13.97"/>
<rect height="4.25" ry="1.06" transform="matrix(-.97 .26 -.26 -.97 0 0)" width="2.13" x="-19.85" y="-10.22"/>
<path d="m34.41 9c-1.07-.01-2.12.56-2.78 1.52l-.52.76c-1.47-.45-3.03-.7-4.65-.7-8.75 0-15.88 7.13-15.88 15.88s7.13 15.88 15.88 15.88 15.88-7.13 15.88-15.88c0-4.71-2.07-8.95-5.35-11.86l.37-.77c.74-1.52.34-3.36-1.13-4.21l-.39-.23c-.46-.26-.95-.39-1.43-.39zm-.07 1.83c.19.01.38.06.57.17l.4.23c.6.34.8 1.07.45 1.67l-3.08 6.39c-.3.63-1.07.8-1.68.45l-1.31-.76c-.6-.35-.84-1.1-.45-1.67l4-5.86c.27-.4.67-.63 1.1-.62zm-7.88 2.4c1.06 0 2.09.13 3.08.36l-1.9 2.79c-.95 1.4-.34 3.36 1.12 4.21l1.32.75c1.46.85 3.47.4 4.2-1.12l1.51-3.14c2.41 2.4 3.9 5.71 3.9 9.38 0 7.32-5.91 13.23-13.23 13.23s-13.23-5.91-13.23-13.23 5.91-13.23 13.23-13.23z" fill-rule="evenodd"/>
</g>
</svg>
