<svg height="24" viewBox="0 0 6.35 6.35" width="24" xmlns="http://www.w3.org/2000/svg" xmlns:xlink="http://www.w3.org/1999/xlink">
  <use transform="translate(2.116667 2.116667)" xlink:href="#a"/>
  <circle cx="13.229166" cy="2.645833" fill="#fff" fill-opacity=".8" r="2.116667" stroke-linecap="round" stroke-width=".264583"/>
  <g id="a" stroke="#7f8c98" stroke-width=".398509" transform="matrix(.65243205 0 0 .65243205 .045178 .045178)">
    <path d="m3.18.13a3.04 3.04 0 0 0 -3.05 3.05 3.04 3.04 0 0 0 3.05 3.04 3.04 3.04 0 0 0 3.04-3.04 3.04 3.04 0 0 0 -3.04-3.05zm-.53 1.99h1.14l.61 1.05-.62 1.06h-1.25l-.57-1.06z" fill="#c6d4e2" fill-rule="evenodd" stroke-width=".398509"/>
    <path d="m2.68 6.15 1.72-2.98m-2.44 0 1.71-2.97m-2.83 1.05 1.69 2.93m1.26-2.06 1.71 2.97m-5.16-.86h3.44m-1.13-2.11h3.36" fill="#ffb843" stroke-linecap="round" stroke-width=".398509"/>
  </g>
  <path d="m4.3656249 2.1166668a2.2489583 2.2489586 0 0 1 -2.2182 2.2487482" fill="none" stroke="#fff" stroke-linecap="round" stroke-opacity=".8125" stroke-width=".264583"/>
</svg>
