<svg height="24" viewBox="0 0 24 24" width="24" xmlns="http://www.w3.org/2000/svg" xmlns:xlink="http://www.w3.org/1999/xlink">
  <g id="a" stroke="#7f8c98" stroke-width=".543197" transform="matrix(1.8092735 0 0 1.809265 .254822 .254823)">
    <path d="m3.18.13c-1.6867652-.00555776-3.05555776 1.3632348-3.05 3.05-.0000091 1.6828586 1.3671505 3.0455357 3.05 3.04 1.6789456 0 3.04-1.3610544 3.04-3.04.0055357-1.6828495-1.3571414-3.0500091-3.04-3.05zm-.9416015 1.448482 1.8740908-.0104851.9298674 1.599387-.9451111 1.6146192h-1.8963977l-.8779606-1.6146192z" fill="#c6d4e2" fill-rule="evenodd" stroke-width=".541653"/>
    <path d="m3.3038496 6.1771821 1.7385071-3.0097982m-3.7194694 0 1.7299269-3.00234912m-2.55678493 1.60304952 1.69575043 2.9377575m1.9207096-3.1378449 1.735655 3.0122904m-5.2037486.2017158h3.4528499m-1.7225411-3.2140062h3.3183091" fill="#ffb843" stroke-linecap="round" stroke-width=".541653"/>
  </g>
  <use transform="translate(12.001465)" xlink:href="#a"/>
  <use transform="translate(0 12.00124)" xlink:href="#a"/>
  <use transform="translate(12.001465 12.00124)" xlink:href="#a"/>
</svg>
