<svg height="24" viewBox="0 0 6.35 6.35" width="24" xmlns="http://www.w3.org/2000/svg">
<g stroke="#e03e00" stroke-width=".26">
<path d="m3.18.13a3.04 3.04 0 0 0 -3.05 3.05 3.04 3.04 0 0 0 3.05 3.04 3.04 3.04 0 0 0 3.04-3.04 3.04 3.04 0 0 0 -3.04-3.05zm-.53 1.99h1.14l.61 1.05-.62 1.06h-1.25l-.57-1.06z" fill="#ffb986" fill-rule="evenodd"/>
<path d="m2.68 6.15 1.72-2.98m-2.44 0 1.71-2.97m-2.83 1.05 1.69 2.93m1.26-2.06 1.71 2.97m-5.16-.86h3.44m-1.13-2.11h3.36" fill="#ffb843" stroke-linecap="round"/>
</g>
</svg>
