<svg height="24" viewBox="0 0 6.35 6.35" width="24" xmlns="http://www.w3.org/2000/svg">
  <path d="m2.3849298.92376235c-1.2470637-.004109-2.25904303 1.00787035-2.25493413 2.25493415-.0000067 1.2441755 1.01076533 2.2516335 2.25493413 2.2475408 1.2412825 0 2.2475409-1.0062583 2.2475409-2.2475408.004093-1.2441688-1.0033654-2.25494088-2.2475409-2.25493415zm-.694057 1.05713285 1.386486.00108.6904661 1.1873744-.7017852 1.1986828h-1.3818167l-.68479463-1.1853766z" fill="#d6dfe7" fill-rule="evenodd" stroke="#9da5ab" stroke-width=".26"/>
  <path d="m2.4795902 5.3991605 1.288235-2.2298147m-2.7618647 0 1.2727107-2.20839026m-1.87159443 1.19570256 1.24407333 2.1548288m1.4262084-2.3295155 1.2747069 2.2118536m-3.84742963.1742036h2.56140373m-1.27906-2.3860572h2.488407" fill="#ffb843" stroke="#9da5ab" stroke-linecap="round" stroke-width=".26"/>
  <path d="m5.048108 4.8857053c.7412914-1.2370975.6241927-2.3934696-.03963-3.4984263l-.3817746.3526972-.3548221-1.58928636 1.5489501.47979001-.4222807.39280935c.8962207 1.4064386.9143264 2.8128771.05432 4.2193157l.4345457.3837334-1.5436943.5256623.3206538-1.5962612z" fill="#293c4f"/>
</svg>
