<svg height="24" viewBox="0 0 6.35 6.35" width="24" xmlns="http://www.w3.org/2000/svg" xmlns:xlink="http://www.w3.org/1999/xlink">
<linearGradient id="a" gradientUnits="userSpaceOnUse" x1="2.1778" x2="6.8994" y1="4.4572" y2="4.4572">
<stop offset="0" stop-color="#ffe168"/>
<stop offset="1" stop-color="#e4dcd4"/>
</linearGradient>
<linearGradient id="b" gradientTransform="matrix(.12 .21 -.21 .12 5.84 -.38)" gradientUnits="userSpaceOnUse" x1="19.89" x2="19.89" y1="18.08" y2="7.28">
<stop offset="0" stop-color="#aa803b"/>
<stop offset="1" stop-color="#ccb383"/>
</linearGradient>
<circle cx="3.18" cy="3.18" fill="#e4e7eb" fill-opacity=".49" r="3.18"/>
<g stroke="#566b7f" stroke-width=".53">
<path d="m3.18 0v3.18" fill="#b1c1d0" stroke-linecap="square"/>
<path d="m0 3.17h3.18" fill="#b1c1d0" stroke-linecap="square"/>
<circle cx="3.18" cy="3.18" fill="none" r="2.12"/>
</g>
<path d="m5.88 3.05c-.18-.26-.57-.16-.65-.01.19.37.4.64.69 1.12 0 0-.61-.95-.83-1.18-.1-.12-.41-.08-.55.01.3.51.53.92.87 1.46l-.83-1.36c-.17-.27-.64-.16-.78-.07.43.6.76 1.13 1.15 1.71-.44-.63-1.03-1.61-1.61-2.26-.21-.24-.38-.3-.58-.11-.15.13-.11.39.2.71.31.33 1.42 2.07 1.42 2.07s-.79-.66-1.35-.94c-.4-.2-.73.13-.68.29.07.22.22.26.57.39.32.12.49.63.76.86.4.35 1.49 1.05 1.49 1.05.56.32 1.84.11 1.71-1 0 0-.06-1.19-.5-1.96-.2-.37-.5-.78-.5-.78z" fill="url(#a)" fill-rule="evenodd" stroke="url(#b)" stroke-linejoin="round" stroke-width=".26"/>
</svg>
