<?xml version="1.0" encoding="UTF-8" standalone="no"?>
<svg
   height="24"
   viewBox="0 0 6.35 6.35"
   width="24"
   version="1.1"
   id="svg4"
   sodipodi:docname="crosshair_edit.svg"
   inkscape:version="1.3.2 (091e20e, 2023-11-25, custom)"
   xmlns:inkscape="http://www.inkscape.org/namespaces/inkscape"
   xmlns:sodipodi="http://sodipodi.sourceforge.net/DTD/sodipodi-0.dtd"
   xmlns:xlink="http://www.w3.org/1999/xlink"
   xmlns="http://www.w3.org/2000/svg"
   xmlns:svg="http://www.w3.org/2000/svg">
  <defs
     id="defs4">
    <linearGradient
       id="c"
       gradientTransform="matrix(1,0.08,-0.08,1,1.01,-0.93)"
       gradientUnits="userSpaceOnUse"
       x1="4.9200001"
       x2="19.24"
       xlink:href="#a"
       y1="3.71"
       y2="20.799999" />
    <linearGradient
       id="a">
      <stop
         offset="0"
         stop-color="#408de3"
         id="stop1" />
      <stop
         offset="1"
         stop-color="#3269a2"
         id="stop2" />
    </linearGradient>
    <linearGradient
       id="b"
       gradientUnits="userSpaceOnUse"
       x1="15.09"
       x2="8.7700005"
       xlink:href="#a"
       y1="14.74"
       y2="9.5" />
    <linearGradient
       id="a-2"
       gradientUnits="userSpaceOnUse"
       x1="5.5330591"
       x2="23.685064"
       y1="14.223702"
       y2="14.223702"
       gradientTransform="matrix(0.26458333,0,0,0.26458333,0.7401164,0.75626895)">
      <stop
         offset="0"
         stop-color="#ffe168"
         id="stop1-8" />
      <stop
         offset="1"
         stop-color="#e4dcd4"
         id="stop2-3" />
    </linearGradient>
    <linearGradient
       id="b-6"
       gradientTransform="matrix(0.12043787,0.211905,-0.20860448,0.12234342,5.8372436,-0.38034532)"
       gradientUnits="userSpaceOnUse"
       x1="19.892296"
       x2="19.892296"
       y1="18.08366"
       y2="7.2779679">
      <stop
         offset="0"
         stop-color="#aa803b"
         id="stop3" />
      <stop
         offset="1"
         stop-color="#ccb383"
         id="stop4" />
    </linearGradient>
  </defs>
  <sodipodi:namedview
     id="namedview4"
     pagecolor="#ffffff"
     bordercolor="#000000"
     borderopacity="0.25"
     inkscape:showpageshadow="2"
     inkscape:pageopacity="0.0"
     inkscape:pagecheckerboard="0"
     inkscape:deskcolor="#d1d1d1"
     showgrid="false"
     inkscape:zoom="26.870058"
     inkscape:cx="11.499789"
     inkscape:cy="11.425357"
     inkscape:window-width="3840"
     inkscape:window-height="2054"
     inkscape:window-x="-11"
     inkscape:window-y="-11"
     inkscape:window-maximized="1"
     inkscape:current-layer="svg4" />
  <circle
     cx="3.175"
     cy="3.175"
     fill="none"
     id="circle6"
     style="fill:#e4e7eb;fill-opacity:0.490196;stroke:none;stroke-width:1.06;stroke-opacity:0.49"
     r="3.175" />
  <path
     d="M -7.4033334,0 V 2.6458333"
     fill="#b1c1d0"
     stroke-linecap="square"
     id="path1"
     style="stroke:#e4e7eb;stroke-width:1.06;stroke-opacity:0.49"
     sodipodi:nodetypes="cc" />
  <path
     d="m -10.583333,3.18 h 2.6458329"
     fill="#b1c1d0"
     stroke-linecap="square"
     id="path2"
     style="stroke:#e4e7eb;stroke-width:1.06;stroke-opacity:0.49"
     sodipodi:nodetypes="cc" />
  <circle
     cx="-7.4033332"
     cy="3.1800001"
     fill="none"
     r="2.1199999"
     id="circle2"
     style="stroke:#e4e7eb;stroke-width:1.06;stroke-opacity:0.49" />
  <path
     d="M 3.18,0 V 3.175"
     fill="#b1c1d0"
     stroke="#566b7f"
     stroke-linecap="square"
     stroke-width="0.53"
     id="path3"
     sodipodi:nodetypes="cc" />
  <path
     d="M 0,3.17 H 3.175"
     fill="#b1c1d0"
     stroke="#566b7f"
     stroke-linecap="square"
     stroke-width="0.53"
     id="path4"
     sodipodi:nodetypes="cc" />
  <circle
     cx="3.18"
     cy="3.18"
     fill="none"
     r="2.12"
     stroke="#566b7f"
     stroke-width=".53"
     id="circle4" />
  <path
     d="m 11.217807,3.0852563 h 8e-6 C 11.034608,2.8148653 10.652986,2.8749982 10.547084,3.070265 10.451254,2.9331333 10.034362,2.8411469 9.8262134,3.0227879 9.6180654,2.9123219 9.2109381,2.9620263 9.0656432,3.0576967 8.662342,2.6529678 8.4367059,1.9868416 7.981322,2.3661487 7.8329275,2.5012925 7.8754855,2.769684 8.1910281,3.1058202 c 0.3167806,0.3374554 1.4680557,2.1450186 1.4680557,2.1450186 0,0 -0.8237768,-0.6891083 -1.4043213,-0.9726554 C 7.840675,4.075937 7.4959243,4.4133006 7.5521551,4.579656 c 0.076737,0.227021 0.230908,0.2686955 0.5919814,0.4048154 0.3322989,0.125272 0.5129583,0.6481202 0.7861043,0.8894916 0.4154482,0.36712 1.5440442,1.0863591 1.5440442,1.0863591 0.834483,0.3931959 1.79135,0.098927 1.774486,-1.0407103 -0.08049,-1.2809947 -0.367762,-1.8864156 -1.030964,-2.8343555 z"
     fill="none"
     stroke="#000000"
     stroke-opacity="0.504808"
     stroke-width="0.274214"
     id="path11"
     style="stroke:#ffffff;stroke-width:0.529167;stroke-linejoin:round;stroke-dasharray:none;stroke-opacity:1"
     sodipodi:nodetypes="ccccccscssssccc" />
  <path
     d="m 5.8797442,3.0512364 h 8.4e-6 C 5.7029805,2.7903425 5.3106037,2.8899367 5.2325879,3.0367717 c 0.1871101,0.3651506 0.3998849,0.6359646 0.686549,1.1228387 0,0 -0.6097381,-0.9530887 -0.8277071,-1.1820837 -0.1018186,-0.118967 -0.4120947,-0.075482 -0.5543931,0.013435 0.2954305,0.511188 0.5324221,0.92357 0.8749736,1.4605355 L 4.578635,3.0936349 C 4.4137247,2.8249373 3.9433633,2.9323356 3.8031717,3.0246458 4.2250659,3.6245438 4.558565,4.1515671 4.9472649,4.7284654 4.5106199,4.0950021 3.9212092,3.1223347 3.3354722,2.4660334 3.127193,2.2326625 2.9608876,2.1716458 2.7569351,2.357387 2.6137529,2.4877843 2.654816,2.7467489 2.9592757,3.0710789 c 0.3056544,0.3256023 1.4164929,2.0696782 1.4164929,2.0696782 0,0 -0.7948429,-0.6649045 -1.3549971,-0.9384927 -0.3995433,-0.1951429 -0.7321854,0.1303719 -0.6779294,0.290884 0.074041,0.2190472 0.2227977,0.2592583 0.5711891,0.390597 0.3206276,0.1208722 0.4949415,0.6253561 0.7584937,0.8582498 0.4008565,0.3542255 1.4898121,1.048203 1.4898121,1.048203 0.5590063,0.3189242 1.8393052,0.1060712 1.7121614,-1.0041573 0,0 -0.057776,-1.1876971 -0.4999824,-1.9634776 C 6.177025,3.4618994 5.8797442,3.0512364 5.8797442,3.0512364 Z"
     fill="url(#a)"
     fill-rule="evenodd"
     stroke="url(#b)"
     id="path12"
     style="fill:url(#a-2);stroke:url(#b-6);stroke-width:0.264583;stroke-linejoin:round"
     sodipodi:nodetypes="ccccccccccssscsssscccc" />
</svg>
