<svg height="24" width="24" xmlns="http://www.w3.org/2000/svg" xmlns:xlink="http://www.w3.org/1999/xlink">
<linearGradient id="a" gradientTransform="matrix(1 0 0 .9 2.5 -2.29)" gradientUnits="userSpaceOnUse" x1="5" x2="20" y1="3" y2="21">
<stop offset="0" stop-color="#fdffff"/>
<stop offset="1" stop-color="#b2d3fa"/>
</linearGradient>
<linearGradient id="b" gradientTransform="matrix(1 0 0 .9 2.5 -2.29)" gradientUnits="userSpaceOnUse" x1="17.56" x2="4.4" y1="5.82" y2="23.8">
<stop offset="0" stop-color="#92b1de"/>
<stop offset="1" stop-color="#525f96"/>
</linearGradient>
<linearGradient id="c">
<stop offset="0" stop-color="#705526"/>
<stop offset="1" stop-color="#c69c59"/>
</linearGradient>
<linearGradient id="d">
<stop offset="0" stop-color="#f3c668"/>
<stop offset="1" stop-color="#f9f398"/>
</linearGradient>
<linearGradient id="e" gradientUnits="userSpaceOnUse" x1="1" x2="16" xlink:href="#c" y1="19" y2="9"/>
<linearGradient id="f" gradientUnits="userSpaceOnUse" x1="3" x2="10" xlink:href="#d" y1="15" y2="10"/>
<linearGradient id="g" gradientUnits="userSpaceOnUse" x1="6" x2="17" xlink:href="#d" y1="15" y2="22"/>
<linearGradient id="h" gradientUnits="userSpaceOnUse" x1="3" x2="21" xlink:href="#c" y1="22" y2="13"/>
<g fill-rule="evenodd">
<g stroke-linejoin="round">
<path d="m.6 23.4v-14.4l2.4-4.4h7l1 2.8h7v16z" fill="url(#f)" stroke="url(#e)" stroke-width="1.2"/>
<path d="m23.5 15.5-3.46 4h-13.54v-19h17z" fill="url(#a)" stroke="url(#b)" stroke-dashoffset="21.44" stroke-linecap="round"/>
<path d="m.6 23.4h17.4l5.5-8h-12.5l-2 2h-4z" fill="url(#g)" stroke="url(#h)" stroke-width="1.2"/>
</g>
<ellipse cx="15" cy="8" fill="#f00" rx="2.42" ry="2.25"/>
<ellipse cx="8.87" cy="14.39" fill="#b235ff" rx="7.39" ry="5.47" transform="matrix(.87 -.49 .51 .86 0 0)"/>
<ellipse cx="8.87" cy="14.39" fill="#ffc500" rx="5.74" ry="4.25" transform="matrix(.87 -.49 .51 .86 0 0)"/>
<ellipse cx="8.87" cy="14.39" fill="#f00" rx="2.78" ry="2.05" transform="matrix(.87 -.49 .51 .86 0 0)"/>
</g>
</svg>
