<?xml version="1.0" encoding="UTF-8" standalone="no"?>
<svg
   height="24"
   width="24"
   version="1.1"
   id="svg11"
   sodipodi:docname="save_raw.svg"
   inkscape:version="1.3.2 (091e20e, 2023-11-25, custom)"
   xmlns:inkscape="http://www.inkscape.org/namespaces/inkscape"
   xmlns:sodipodi="http://sodipodi.sourceforge.net/DTD/sodipodi-0.dtd"
   xmlns="http://www.w3.org/2000/svg"
   xmlns:svg="http://www.w3.org/2000/svg">
  <defs
     id="defs11" />
  <sodipodi:namedview
     id="namedview11"
     pagecolor="#ffffff"
     bordercolor="#000000"
     borderopacity="0.25"
     inkscape:showpageshadow="2"
     inkscape:pageopacity="0.0"
     inkscape:pagecheckerboard="0"
     inkscape:deskcolor="#d1d1d1"
     showgrid="false"
     inkscape:zoom="76"
     inkscape:cx="12"
     inkscape:cy="12"
     inkscape:window-width="3840"
     inkscape:window-height="2054"
     inkscape:window-x="-11"
     inkscape:window-y="-11"
     inkscape:window-maximized="1"
     inkscape:current-layer="g6" />
  <linearGradient
     id="a"
     gradientTransform="matrix(1 0 0 .89 -2.48 -1.27)"
     gradientUnits="userSpaceOnUse"
     x1="4.59"
     x2="16.45"
     y1="2.66"
     y2="16.98">
    <stop
       offset="0"
       stop-color="#fdffff"
       id="stop1" />
    <stop
       offset="1"
       stop-color="#b2d3fa"
       id="stop2" />
  </linearGradient>
  <linearGradient
     id="b"
     gradientTransform="matrix(1 0 0 .89 -2.48 -1.27)"
     gradientUnits="userSpaceOnUse"
     x1="16.45"
     x2="3.7"
     y1="2.66"
     y2="19.06">
    <stop
       offset="0"
       stop-color="#92b1de"
       id="stop3"
       style="stop-color:#c4c4c4;stop-opacity:1;" />
    <stop
       offset="1"
       stop-color="#525f96"
       id="stop4"
       style="stop-color:#707070;stop-opacity:1;" />
  </linearGradient>
  <g
     fill-rule="evenodd"
     id="g6">
    <path
       d="m17.5.5v17h-17v-17z"
       fill="url(#a)"
       stroke="url(#b)"
       stroke-dashoffset="21.44"
       stroke-linecap="round"
       stroke-linejoin="round"
       id="path4"
       style="fill:#6f6f6f;fill-opacity:1" />
    <ellipse
       cx="3.18"
       cy="12.22"
       fill="#b235ff"
       rx="7.38"
       ry="5.47"
       transform="matrix(.87 -.49 .51 .86 0 0)"
       id="ellipse4"
       style="fill:#949494;fill-opacity:1" />
    <ellipse
       cx="3.18"
       cy="12.22"
       fill="#ffc500"
       rx="5.73"
       ry="4.25"
       transform="matrix(.87 -.49 .51 .86 0 0)"
       id="ellipse5"
       style="fill:#d7d7d7;fill-opacity:1" />
    <ellipse
       cx="3.18"
       cy="12.22"
       fill="#f00"
       rx="2.78"
       ry="2.05"
       transform="matrix(.87 -.49 .51 .86 0 0)"
       id="ellipse6"
       style="fill:#ffffff;fill-opacity:1" />
  </g>
  <path
     d="m18 18v-10h-8c-1.11 0-2 .69-2 2v8z"
     fill="#fff"
     fill-opacity=".65"
     id="path6" />
  <rect
     height="14"
     rx=".59"
     ry=".51"
     style="fill:#6565d0;fill-rule:evenodd;stroke:#3f4397;stroke-linecap:square;stroke-linejoin:round;stroke-dashoffset:21.44"
     transform="scale(1 -1)"
     width="14"
     x="9.5"
     y="-23.5"
     id="rect6" />
  <path
     d="m21 10v7h-9v-7z"
     fill="#fff"
     fill-opacity=".93"
     id="path7" />
  <path
     d="m13.5-23.5h6v5h-6z"
     fill="#e5e5f1"
     stroke="#a7aada"
     stroke-linecap="square"
     transform="scale(1 -1)"
     id="path8" />
  <path
     d="m15 22h1v-2h-1z"
     fill="#373a6c"
     fill-opacity=".72"
     id="path9" />
  <g
     fill="#fafafa"
     stroke="#b6b7cb"
     id="g11">
    <path
       d="m12 9.5h9m-8 2h4m-4 2h7"
       id="path10" />
    <path
       d="m12 9.5h9m-8 2h4m-4 4h5"
       id="path11" />
  </g>
</svg>
