<svg height="24" width="24" xmlns="http://www.w3.org/2000/svg" xmlns:xlink="http://www.w3.org/1999/xlink">
<linearGradient id="a">
<stop offset="0" stop-color="#408de3"/>
<stop offset="1" stop-color="#3269a2"/>
</linearGradient>
<linearGradient id="b" gradientUnits="userSpaceOnUse" x1="15.09" x2="8.77" xlink:href="#a" y1="14.74" y2="9.5"/>
<linearGradient id="c" gradientTransform="matrix(1 .08 -.08 1 1.01 -.93)" gradientUnits="userSpaceOnUse" x1="4.92" x2="19.24" xlink:href="#a" y1="3.71" y2="20.8"/>
<g stroke-linecap="round">
<path d="m10.27 1.32c-.14-.01-.31 0-.5.04-2.04.48.33 2.97-1.47 4.08-1.82 1.1-2.75-2.27-4.14-.65-1.39 1.63 1.95 2.19 1.11 4.18s-3.52-.15-3.72 2.01c-.21 2.16 2.82.57 3.26 2.68.45 2.12-2.94 2.02-1.88 3.89 1.05 1.86 2.61-1.26 4.17.17 1.57 1.44-1.24 3.42.67 4.28 1.92.87 1.42-2.6 3.5-2.39 2.08.2.92 3.51 2.96 3.04 2.05-.48-.33-2.97 1.48-4.07 1.81-1.11 2.74 2.27 4.13.64v-.01c1.4-1.62-1.95-2.18-1.11-4.17s3.52.15 3.73-2.01c.21-2.17-2.83-.59-3.27-2.7-.44-2.12 2.94-2.01 1.89-3.88-1.05-1.86-2.62 1.26-4.18-.17s1.25-3.42-.67-4.28c-1.91-.87-1.41 2.6-3.49 2.4-1.89-.18-1.12-2.92-2.47-3.08zm1.76 6.59a4.08 4.08 0 0 1 3.96 3.2 4.08 4.08 0 1 1 -7.97 1.76 4.08 4.08 0 0 1 4.01-4.96z" fill="#99d2ff" stroke="url(#c)"/>
<path d="m11.7 7.93c1.9-.14 3.64 1.05 4.2 2.87 1.6 5.2-6.2 7.6-7.8 2.4-.77-2.5.98-5.08 3.6-5.27z" fill="none" stroke="url(#b)"/>
</g>
</svg>
