<svg height="24" width="24" xmlns="http://www.w3.org/2000/svg" xmlns:xlink="http://www.w3.org/1999/xlink">
<radialGradient id="a" cx="12" cy="12" gradientUnits="userSpaceOnUse" r="9">
<stop offset="0" stop-color="#ff4f54"/>
<stop offset="1" stop-color="#ac44ff"/>
</radialGradient>
<linearGradient id="b" gradientTransform="matrix(0 -1 1 0 -19 24)" gradientUnits="userSpaceOnUse" x1="-.5" x2="24.5" xlink:href="#d" y1="21.5" y2="21.5"/>
<linearGradient id="c" gradientTransform="matrix(0 -1 1 0 -19 23)" gradientUnits="userSpaceOnUse" x1="22.41" x2="19.5" xlink:href="#d" y1="21.5" y2="21.5"/>
<linearGradient id="d">
<stop offset="0" stop-color="#305080"/>
<stop offset="1" stop-color="#5b79a4"/>
</linearGradient>
<linearGradient id="e" gradientUnits="userSpaceOnUse" x1="-.5" x2="24.5" xlink:href="#d" y1="21.5" y2="21.5"/>
<linearGradient id="f" gradientUnits="userSpaceOnUse" x1="23.41" x2="20.5" xlink:href="#d" y1="21.5" y2="21.5"/>
<g transform="translate(40 1)">
<path d="m12.5 18v-15" fill="none" stroke="#000"/>
<g fill-rule="evenodd">
<path d="m8.5 5 4-6 4 6"/>
<path d="m8.5 16 4 6 4-6"/>
</g>
</g>
<g transform="matrix(0 -1 1 0 42 24)">
<path d="m12.5 18v-15" fill="none" stroke="#000"/>
<g fill-rule="evenodd">
<path d="m8.5 5 4-6 4 6"/>
<path d="m8.5 16 4 6 4-6"/>
</g>
</g>
<path d="m0 21.5h23" fill="none" stroke="url(#e)"/>
<path d="m21 19.5 3 2-3 2" fill="url(#f)" fill-rule="evenodd"/>
<path d="m5 3h16v16h-16z" fill="url(#a)"/>
<path d="m20 3.5h-14m14 3h-14m14 3h-14m14 3h-14m14 3h-14m14 3h-14" stroke="#ced3d8" stroke-opacity=".72"/>
<path d="m2.5 24v-23" fill="none" stroke="url(#b)"/>
<path d="m.5 3 2-3 2 3" fill="url(#c)" fill-rule="evenodd"/>
<path d="m20.5 19v-16m-3 16v-16m-3 16v-16m-3 16v-16m-3 16v-16m-3 16v-16" stroke="#ced3d8" stroke-opacity=".72"/>
</svg>
